<?xml version="1.0" encoding="utf-8"?>
<!-- Generator: Adobe Illustrator 24.1.1, SVG Export Plug-In . SVG Version: 6.00 Build 0)  -->
<svg version="1.1" id="Capa_1" xmlns="http://www.w3.org/2000/svg" xmlns:xlink="http://www.w3.org/1999/xlink" x="0px" y="0px"
	 width="30.3px" height="40.5px" viewBox="0 0 30.3 40.5" style="enable-background:new 0 0 30.3 40.5;" xml:space="preserve">
<style type="text/css">
	.st0{fill:#00FFFF;}
	.st1{fill:#FF00E7;}
	.st2{fill:#FFFFFF;}
</style>
<g id="Background">
</g>
<path class="st0" d="M26.4,40.5H3.9c-2.1,0-3.9-1.8-3.9-3.9V3.9C0,1.8,1.8,0,3.9,0h22.5c2.1,0,3.9,1.8,3.9,3.9v32.6
	c0.1,1-0.3,2-1,2.7C28.5,40.1,27.5,40.5,26.4,40.5z M3.9,1.6c-1.2,0-2.3,1-2.3,2.3v32.7c0,1.2,1,2.3,2.3,2.3h22.5
	c0.6,0,1.2-0.2,1.7-0.7c0.4-0.4,0.6-1,0.6-1.6V3.9c0-1.2-1-2.3-2.3-2.3C26.4,1.6,3.9,1.6,3.9,1.6z"/>
<path class="st1" d="M23.7,12.9h-17c-1.6,0-3-1.3-3-3V6.8c0-1.6,1.3-3,3-3h17c1.6,0,3,1.3,3,3v3.1C26.6,11.5,25.3,12.9,23.7,12.9z
	 M6.7,5.4c-0.8,0-1.4,0.6-1.4,1.4v3.1c0,0.8,0.6,1.4,1.4,1.4h17c0.8,0,1.4-0.6,1.4-1.4V6.8c0-0.8-0.6-1.4-1.4-1.4H6.7z"/>
<g>
	<g>
		<path class="st2" d="M7.3,20.6L7.3,20.6c-1.3,0-2.3-1-2.3-2.3l0,0c0-1.3,1-2.3,2.3-2.3l0,0c1.3,0,2.3,1,2.3,2.3l0,0
			C9.6,19.5,8.6,20.6,7.3,20.6z"/>
	</g>
	<g>
		<path class="st2" d="M15.1,20.6L15.1,20.6c-1.3,0-2.3-1-2.3-2.3l0,0c0-1.3,1-2.3,2.3-2.3l0,0c1.3,0,2.3,1,2.3,2.3l0,0
			C17.4,19.5,16.4,20.6,15.1,20.6z"/>
	</g>
	<g>
		<path class="st2" d="M7.2,28.3L7.2,28.3c-1.3,0-2.3-1-2.3-2.3l0,0c0-1.3,1-2.3,2.3-2.3l0,0c1.3,0,2.3,1,2.3,2.3l0,0
			C9.6,27.3,8.6,28.3,7.2,28.3z"/>
	</g>
	<g>
		<path class="st2" d="M15.1,28.3L15.1,28.3c-1.3,0-2.3-1-2.3-2.3l0,0c0-1.3,1-2.3,2.3-2.3l0,0c1.3,0,2.3,1,2.3,2.3l0,0
			C17.4,27.3,16.4,28.3,15.1,28.3z"/>
	</g>
	<g>
		<path class="st2" d="M7.2,36.1L7.2,36.1c-1.3,0-2.3-1-2.3-2.3l0,0c0-1.3,1-2.3,2.3-2.3l0,0c1.3,0,2.3,1,2.3,2.3l0,0
			C9.6,35,8.6,36.1,7.2,36.1z"/>
	</g>
	<g>
		<path class="st2" d="M15.1,36.1L15.1,36.1c-1.3,0-2.3-1-2.3-2.3l0,0c0-1.3,1-2.3,2.3-2.3l0,0c1.3,0,2.3,1,2.3,2.3l0,0
			C17.4,35,16.4,36.1,15.1,36.1z"/>
	</g>
	<g>
		<path class="st2" d="M22.9,20.6L22.9,20.6c-1.3,0-2.3-1-2.3-2.3l0,0c0-1.3,1-2.3,2.3-2.3l0,0c1.3,0,2.3,1,2.3,2.3l0,0
			C25.4,19.5,24.3,20.6,22.9,20.6z"/>
	</g>
	<path class="st2" d="M24.5,36.1h-3.4c-0.6,0-1-0.5-1-1V24.9c0-0.6,0.5-1,1-1h3.4c0.6,0,1,0.5,1,1V35C25.5,35.7,25,36.1,24.5,36.1z"
		/>
</g>
</svg>
