<?xml version="1.0" encoding="utf-8"?>
<!-- Generator: Adobe Illustrator 24.1.1, SVG Export Plug-In . SVG Version: 6.00 Build 0)  -->
<svg version="1.1" id="Layer_1" xmlns="http://www.w3.org/2000/svg" xmlns:xlink="http://www.w3.org/1999/xlink" x="0px" y="0px"
	 width="159.7px" height="31.8px" viewBox="0 0 159.7 31.8" style="enable-background:new 0 0 159.7 31.8;" xml:space="preserve">
<style type="text/css">
	.st0{fill:#FFFFFF;}
	.st1{fill:#00FFFF;}
	.st2{fill:#FF00E7;}
</style>
<g>
	<path class="st0" d="M35.4,24.8H32V7.9h9.9v3h-6.1v4.5h5.9v2.9h-5.9C35.4,18.3,35.4,24.8,35.4,24.8z"/>
	<path class="st0" d="M52.2,11.4c0.3,0,0.4,0,0.6,0c0.3,0,0.4,0,0.5,0.1L53,14.9c-0.1,0-0.3-0.1-0.4-0.1c-0.1,0-0.4,0-0.5,0
		c-0.4,0-1,0.1-1.4,0.3c-0.4,0.1-0.9,0.3-1.1,0.5c-0.4,0.3-0.6,0.5-0.9,1.1c-0.5,0.5-0.5,1.1-0.5,1.5v6.7h-3.5v-13h2.8l0.5,2.2h0.4
		c0.3-0.4,0.5-0.9,1-1.3c0.4-0.4,0.9-0.6,1.4-0.9C51.1,11.4,51.6,11.4,52.2,11.4z"/>
	<path class="st0" d="M61.1,11.4c1.3,0,2.4,0.3,3.2,0.6c0.9,0.5,1.4,1.1,1.9,1.9c0.5,0.9,0.9,1.9,0.9,3.3v1.7h-8.4
		c0,1.1,0.4,1.8,1,2.4c0.5,0.5,1.4,0.9,2.4,0.9c0.9,0,1.5-0.1,2.4-0.3c0.6-0.3,1.4-0.4,2.2-0.9v2.7c-0.6,0.3-1.4,0.5-2,0.6
		c-0.6,0.3-1.5,0.3-2.5,0.3c-1.4,0-2.4-0.3-3.4-0.9c-1-0.4-1.8-1.3-2.4-2.2c-0.5-1.1-0.9-2.4-0.9-3.8s0.3-2.9,0.9-3.9
		c0.5-1.1,1.3-1.8,2.2-2.4C59,11.9,60,11.4,61.1,11.4z M61.1,14.1c-0.6,0-1.3,0.3-1.7,0.6c-0.4,0.4-0.9,1.1-0.9,2h5.2
		c0-0.5-0.1-1.1-0.3-1.4c-0.3-0.4-0.4-0.9-0.9-1C62.3,14.1,61.9,14.1,61.1,14.1z"/>
	<path class="st0" d="M75.4,11.4c1.3,0,2.4,0.3,3.2,0.6c0.9,0.4,1.4,1.1,1.9,1.9c0.5,0.9,0.9,1.9,0.9,3.3v1.7H73
		c0,1.1,0.4,1.8,1,2.4c0.5,0.6,1.4,0.9,2.4,0.9c0.9,0,1.5-0.1,2.4-0.3c0.6-0.3,1.4-0.4,2.2-0.9v2.7c-0.6,0.3-1.4,0.5-2,0.6
		c-0.6,0.3-1.5,0.3-2.5,0.3c-1.4,0-2.4-0.3-3.4-0.9c-1-0.4-1.8-1.3-2.4-2.2c-0.5-1-0.9-2.4-0.9-3.8s0.3-2.9,0.9-3.9
		c0.5-1.1,1.3-1.8,2.2-2.4C73.1,11.9,74.2,11.4,75.4,11.4z M75.4,14.1c-0.6,0-1.3,0.3-1.7,0.6c-0.4,0.4-0.9,1.1-0.9,2h5.1
		c0-0.5-0.1-1.1-0.3-1.4c-0.3-0.4-0.4-0.9-0.9-1C76.5,14.1,75.9,14.1,75.4,14.1z"/>
	<path class="st0" d="M87.6,24.8h-3.4V6.6h3.4V24.8z"/>
	<path class="st0" d="M96.9,11.4c1.8,0,3.2,0.4,4.1,1.1c0.9,0.6,1.4,1.8,1.4,3.4v8.8h-2.5l-0.5-1.8h-0.1c-0.4,0.4-0.9,0.9-1.1,1.1
		c-0.4,0.3-0.9,0.4-1.4,0.6c-0.4,0.1-1.1,0.3-1.8,0.3c-0.9,0-1.4-0.3-2-0.4s-1.1-0.9-1.4-1.4c-0.4-0.5-0.5-1.4-0.5-2.4
		c0-1.4,0.4-2.4,1.4-3.2c1-0.6,2.4-1.1,4.5-1.1l2.4-0.1v-0.4c0-0.6-0.3-1.3-0.5-1.4c-0.5,0-1.1-0.1-1.5-0.1c-0.6,0-1.3,0.1-1.8,0.3
		c-0.5,0.3-1.3,0.4-1.8,0.6l-1.4-2.5c0.6-0.4,1.4-0.6,2.4-0.9C95.1,11.4,96.1,11.4,96.9,11.4z M98.9,18.9h-1.4
		c-1.1,0-1.9,0.3-2.4,0.6c-0.4,0.4-0.6,0.9-0.6,1.4s0.3,1,0.4,1.1c0.3,0.1,0.9,0.4,1.3,0.4c0.9,0,1.4-0.3,1.9-0.6
		c0.5-0.4,0.9-1.1,0.9-1.8v-1.1H98.9z"/>
	<path class="st0" d="M113.7,11.4c1.4,0,2.5,0.4,3.3,1.1c0.6,0.6,1.4,1.9,1.4,3.6v8.5H115V17c0-1-0.3-1.5-0.4-2
		c-0.3-0.4-0.9-0.9-1.5-0.9c-1.1,0-1.8,0.4-2.4,1.1c-0.4,0.9-0.5,1.8-0.5,3.3v6.1h-3.7v-13h2.8l0.4,1.5h0.3c0.3-0.4,0.6-0.9,1.1-1.1
		c0.4-0.3,0.9-0.4,1.4-0.6C112.5,11.4,112.9,11.4,113.7,11.4z"/>
	<path class="st0" d="M126.1,25.2c-1.4,0-2.7-0.5-3.4-1.7c-1-1.1-1.4-2.9-1.4-5.1c0-2.4,0.4-4.1,1.4-5.1c0.9-1.3,2.2-1.7,3.6-1.7
		c0.6,0,1.1,0.1,1.7,0.3c0.4,0.3,0.9,0.4,1.3,0.6c0.4,0.3,0.6,0.5,0.9,1h0.1c0-0.3-0.1-0.6-0.3-1.1c-0.1-0.4-0.1-1-0.1-1.4V6.6h3.4
		v18.3h-2.8l-0.6-1.7h-0.2c-0.3,0.4-0.4,0.6-0.9,1c-0.4,0.3-0.9,0.5-1.3,0.6C127.2,25,126.6,25.2,126.1,25.2z M127.2,22.2
		c1,0,1.7-0.3,2-0.9c0.4-0.6,0.6-1.4,0.6-2.7v-0.4c0-1.3-0.3-2.4-0.5-2.9c-0.3-0.6-1.1-1.1-2.2-1.1c-0.9,0-1.4,0.4-1.8,1.1
		c-0.4,0.6-0.6,1.7-0.6,2.9c0,1.4,0.3,2.4,0.6,2.9C125.9,21.9,126.5,22.2,127.2,22.2z"/>
	<path class="st0" d="M142.4,11.4c1.3,0,2.4,0.3,3.2,0.6c0.9,0.5,1.4,1.1,1.9,1.9c0.4,0.9,0.9,1.9,0.9,3.3v1.7H140
		c0,1.1,0.4,1.8,1,2.4c0.5,0.5,1.4,0.9,2.4,0.9c0.9,0,1.5-0.1,2.4-0.3c0.6-0.3,1.4-0.4,2.2-0.9v2.7c-0.6,0.3-1.4,0.5-2,0.6
		c-0.6,0.3-1.5,0.3-2.5,0.3c-1.4,0-2.4-0.3-3.4-0.9c-1.1-0.4-1.8-1.3-2.4-2.2c-0.5-1.1-0.9-2.4-0.9-3.8s0.3-2.9,0.9-3.9
		c0.5-1.1,1.3-1.8,2.2-2.4C140.1,11.9,141.3,11.4,142.4,11.4z M142.4,14.1c-0.6,0-1.3,0.3-1.7,0.6c-0.4,0.4-0.9,1.1-0.9,2h5.1
		c0-0.5-0.1-1.1-0.3-1.4c-0.3-0.3-0.4-0.9-0.9-1C143.6,14.1,143.2,14.1,142.4,14.1z"/>
	<path class="st0" d="M158.6,11.4c0.3,0,0.4,0,0.6,0c0.4,0,0.4,0,0.5,0.1l-0.3,3.3c-0.1,0-0.3-0.1-0.4-0.1s-0.4,0-0.5,0
		c-0.4,0-1,0.1-1.4,0.3c-0.4,0.1-0.9,0.3-1.1,0.5c-0.4,0.3-0.6,0.5-0.9,1.1c-0.3,0.4-0.3,1-0.3,1.5v6.8h-3.4v-13h2.8l0.5,2.2h0.3
		c0.3-0.4,0.5-0.9,1-1.3c0.5-0.4,0.9-0.6,1.4-0.9C157.6,11.4,158.1,11.4,158.6,11.4z"/>
</g>
<g id="Layer_1_1_">
</g>
<g>
	<path class="st1" d="M20.7,31.8H3.1c-1.6,0-3.1-1.4-3.1-3.1V3.1C0,1.4,1.4,0,3.1,0h17.6c1.6,0,3.1,1.4,3.1,3.1v25.6
		c0.1,0.8-0.2,1.6-0.8,2.1C22.3,31.4,21.6,31.8,20.7,31.8z M3.1,1.3c-1,0-1.8,0.7-1.8,1.8v25.6c0,0.9,0.8,1.8,1.8,1.8h17.6
		c0.5,0,0.9-0.2,1.3-0.5c0.3-0.3,0.5-0.8,0.5-1.3V3.1c0-0.9-0.8-1.8-1.8-1.8H3.1z"/>
	<path class="st2" d="M5.3,4.2c-0.6,0-1.1,0.5-1.1,1.1v2.4c0,0.6,0.5,1.1,1.1,1.1h13.3c0.6,0,1.1-0.5,1.1-1.1V5.3
		c0-0.6-0.5-1.1-1.1-1.1C18.6,4.2,5.3,4.2,5.3,4.2z"/>
	<g>
		<g>
			<path class="st0" d="M5.7,16.1L5.7,16.1c-1,0-1.8-0.8-1.8-1.8l0,0c0-1,0.8-1.8,1.8-1.8l0,0c1,0,1.8,0.8,1.8,1.8l0,0
				C7.5,15.3,6.7,16.1,5.7,16.1z"/>
		</g>
		<g>
			<path class="st0" d="M11.8,16.1L11.8,16.1c-1,0-1.8-0.8-1.8-1.8l0,0c0-1,0.8-1.8,1.8-1.8l0,0c1,0,1.8,0.8,1.8,1.8l0,0
				C13.6,15.3,12.9,16.1,11.8,16.1z"/>
		</g>
		<g>
			<path class="st0" d="M5.6,22.2L5.6,22.2c-1,0-1.8-0.8-1.8-1.8l0,0c0-1,0.8-1.8,1.8-1.8l0,0c1,0,1.8,0.8,1.8,1.8l0,0
				C7.5,21.4,6.7,22.2,5.6,22.2z"/>
		</g>
		<g>
			<path class="st0" d="M11.8,22.2L11.8,22.2c-1,0-1.8-0.8-1.8-1.8l0,0c0-1,0.8-1.8,1.8-1.8l0,0c1,0,1.8,0.8,1.8,1.8l0,0
				C13.6,21.4,12.9,22.2,11.8,22.2z"/>
		</g>
		<g>
			<path class="st0" d="M5.6,28.3L5.6,28.3c-1,0-1.8-0.8-1.8-1.8l0,0c0-1,0.8-1.8,1.8-1.8l0,0c1,0,1.8,0.8,1.8,1.8l0,0
				C7.5,27.4,6.7,28.3,5.6,28.3z"/>
		</g>
		<g>
			<path class="st0" d="M11.8,28.3L11.8,28.3c-1,0-1.8-0.8-1.8-1.8l0,0c0-1,0.8-1.8,1.8-1.8l0,0c1,0,1.8,0.8,1.8,1.8l0,0
				C13.6,27.4,12.9,28.3,11.8,28.3z"/>
		</g>
		<g>
			<path class="st0" d="M18,16.1L18,16.1c-1,0-1.8-0.8-1.8-1.8l0,0c0-1,0.8-1.8,1.8-1.8l0,0c1,0,1.8,0.8,1.8,1.8l0,0
				C19.9,15.3,19.1,16.1,18,16.1z"/>
		</g>
		<path class="st0" d="M19.2,28.3h-2.7c-0.5,0-0.8-0.4-0.8-0.8v-8c0-0.5,0.4-0.8,0.8-0.8h2.7c0.5,0,0.8,0.4,0.8,0.8v7.9
			C20,28,19.6,28.3,19.2,28.3z"/>
	</g>
</g>
</svg>
